<mxfile host="app.diagrams.net" modified="2024-04-10T14:06:41.896Z" agent="Mozilla/5.0 (Windows NT 10.0; Win64; x64) AppleWebKit/537.36 (KHTML, like Gecko) Chrome/123.0.0.0 Safari/537.36" etag="356_45V-rWSwTheZfOuh" version="24.2.3" type="google">
  <diagram name="Page-1" id="c4acf3e9-155e-7222-9cf6-157b1a14988f">
    <mxGraphModel grid="1" page="1" gridSize="10" guides="1" tooltips="1" connect="1" arrows="1" fold="1" pageScale="1" pageWidth="850" pageHeight="1100" background="none" math="0" shadow="0">
      <root>
        <mxCell id="0" />
        <mxCell id="1" parent="0" />
        <mxCell id="-uqub06eaImzmK1k1aiv-31" style="edgeStyle=orthogonalEdgeStyle;rounded=0;orthogonalLoop=1;jettySize=auto;html=1;" edge="1" parent="1" source="-uqub06eaImzmK1k1aiv-2" target="-uqub06eaImzmK1k1aiv-25">
          <mxGeometry relative="1" as="geometry" />
        </mxCell>
        <mxCell id="-uqub06eaImzmK1k1aiv-2" value="PolyTrade Hub" style="html=1;whiteSpace=wrap;" vertex="1" parent="1">
          <mxGeometry x="260" y="-720" width="215" height="134" as="geometry" />
        </mxCell>
        <mxCell id="-uqub06eaImzmK1k1aiv-4" value="User" style="swimlane;fontStyle=0;childLayout=stackLayout;horizontal=1;startSize=26;fillColor=none;horizontalStack=0;resizeParent=1;resizeParentMax=0;resizeLast=0;collapsible=1;marginBottom=0;whiteSpace=wrap;html=1;" vertex="1" parent="1">
          <mxGeometry x="60" y="-970" width="140" height="160" as="geometry" />
        </mxCell>
        <mxCell id="-uqub06eaImzmK1k1aiv-5" value="Логин" style="text;strokeColor=none;fillColor=none;align=left;verticalAlign=top;spacingLeft=4;spacingRight=4;overflow=hidden;rotatable=0;points=[[0,0.5],[1,0.5]];portConstraint=eastwest;whiteSpace=wrap;html=1;" vertex="1" parent="-uqub06eaImzmK1k1aiv-4">
          <mxGeometry y="26" width="140" height="26" as="geometry" />
        </mxCell>
        <mxCell id="-uqub06eaImzmK1k1aiv-6" value="пароль" style="text;strokeColor=none;fillColor=none;align=left;verticalAlign=top;spacingLeft=4;spacingRight=4;overflow=hidden;rotatable=0;points=[[0,0.5],[1,0.5]];portConstraint=eastwest;whiteSpace=wrap;html=1;" vertex="1" parent="-uqub06eaImzmK1k1aiv-4">
          <mxGeometry y="52" width="140" height="26" as="geometry" />
        </mxCell>
        <mxCell id="-uqub06eaImzmK1k1aiv-7" value="Почта(Email)&lt;div&gt;&lt;br&gt;&lt;/div&gt;&lt;div&gt;Имя пользователя&lt;/div&gt;" style="text;strokeColor=none;fillColor=none;align=left;verticalAlign=top;spacingLeft=4;spacingRight=4;overflow=hidden;rotatable=0;points=[[0,0.5],[1,0.5]];portConstraint=eastwest;whiteSpace=wrap;html=1;" vertex="1" parent="-uqub06eaImzmK1k1aiv-4">
          <mxGeometry y="78" width="140" height="82" as="geometry" />
        </mxCell>
        <mxCell id="-uqub06eaImzmK1k1aiv-12" style="edgeStyle=orthogonalEdgeStyle;rounded=0;orthogonalLoop=1;jettySize=auto;html=1;exitX=0.464;exitY=0;exitDx=0;exitDy=0;exitPerimeter=0;entryX=1;entryY=0.5;entryDx=0;entryDy=0;" edge="1" parent="1" source="-uqub06eaImzmK1k1aiv-2" target="-uqub06eaImzmK1k1aiv-7">
          <mxGeometry relative="1" as="geometry">
            <mxPoint x="440" y="-650" as="sourcePoint" />
            <mxPoint x="450" y="-830" as="targetPoint" />
            <Array as="points">
              <mxPoint x="300" y="-716" />
              <mxPoint x="300" y="-810" />
              <mxPoint x="260" y="-810" />
              <mxPoint x="260" y="-851" />
            </Array>
          </mxGeometry>
        </mxCell>
        <mxCell id="-uqub06eaImzmK1k1aiv-13" value="Категории" style="swimlane;fontStyle=0;childLayout=stackLayout;horizontal=1;startSize=26;fillColor=none;horizontalStack=0;resizeParent=1;resizeParentMax=0;resizeLast=0;collapsible=1;marginBottom=0;whiteSpace=wrap;html=1;" vertex="1" parent="1">
          <mxGeometry x="400" y="-900" width="140" height="110" as="geometry" />
        </mxCell>
        <mxCell id="-uqub06eaImzmK1k1aiv-14" value="Транспорт" style="text;strokeColor=none;fillColor=none;align=left;verticalAlign=top;spacingLeft=4;spacingRight=4;overflow=hidden;rotatable=0;points=[[0,0.5],[1,0.5]];portConstraint=eastwest;whiteSpace=wrap;html=1;" vertex="1" parent="-uqub06eaImzmK1k1aiv-13">
          <mxGeometry y="26" width="140" height="26" as="geometry" />
        </mxCell>
        <mxCell id="-uqub06eaImzmK1k1aiv-15" value="Электроника" style="text;strokeColor=none;fillColor=none;align=left;verticalAlign=top;spacingLeft=4;spacingRight=4;overflow=hidden;rotatable=0;points=[[0,0.5],[1,0.5]];portConstraint=eastwest;whiteSpace=wrap;html=1;" vertex="1" parent="-uqub06eaImzmK1k1aiv-13">
          <mxGeometry y="52" width="140" height="26" as="geometry" />
        </mxCell>
        <mxCell id="-uqub06eaImzmK1k1aiv-16" value="Личные вещи" style="text;strokeColor=none;fillColor=none;align=left;verticalAlign=top;spacingLeft=4;spacingRight=4;overflow=hidden;rotatable=0;points=[[0,0.5],[1,0.5]];portConstraint=eastwest;whiteSpace=wrap;html=1;" vertex="1" parent="-uqub06eaImzmK1k1aiv-13">
          <mxGeometry y="78" width="140" height="32" as="geometry" />
        </mxCell>
        <mxCell id="-uqub06eaImzmK1k1aiv-18" style="edgeStyle=orthogonalEdgeStyle;rounded=0;orthogonalLoop=1;jettySize=auto;html=1;exitX=0.75;exitY=0;exitDx=0;exitDy=0;entryX=0;entryY=0.5;entryDx=0;entryDy=0;" edge="1" parent="1" source="-uqub06eaImzmK1k1aiv-2" target="-uqub06eaImzmK1k1aiv-16">
          <mxGeometry relative="1" as="geometry" />
        </mxCell>
        <mxCell id="-uqub06eaImzmK1k1aiv-19" value="Корзина" style="swimlane;fontStyle=0;childLayout=stackLayout;horizontal=1;startSize=26;fillColor=none;horizontalStack=0;resizeParent=1;resizeParentMax=0;resizeLast=0;collapsible=1;marginBottom=0;whiteSpace=wrap;html=1;" vertex="1" parent="1">
          <mxGeometry x="640" y="-390" width="140" height="78" as="geometry" />
        </mxCell>
        <mxCell id="-uqub06eaImzmK1k1aiv-21" value="Отложенные товары" style="text;strokeColor=none;fillColor=none;align=left;verticalAlign=top;spacingLeft=4;spacingRight=4;overflow=hidden;rotatable=0;points=[[0,0.5],[1,0.5]];portConstraint=eastwest;whiteSpace=wrap;html=1;" vertex="1" parent="-uqub06eaImzmK1k1aiv-19">
          <mxGeometry y="26" width="140" height="26" as="geometry" />
        </mxCell>
        <mxCell id="-uqub06eaImzmK1k1aiv-34" style="edgeStyle=orthogonalEdgeStyle;rounded=0;orthogonalLoop=1;jettySize=auto;html=1;exitX=0;exitY=0.5;exitDx=0;exitDy=0;entryX=0;entryY=0.75;entryDx=0;entryDy=0;" edge="1" parent="-uqub06eaImzmK1k1aiv-19" source="-uqub06eaImzmK1k1aiv-22" target="-uqub06eaImzmK1k1aiv-19">
          <mxGeometry relative="1" as="geometry" />
        </mxCell>
        <mxCell id="-uqub06eaImzmK1k1aiv-22" value="+ field: type" style="text;strokeColor=none;fillColor=none;align=left;verticalAlign=top;spacingLeft=4;spacingRight=4;overflow=hidden;rotatable=0;points=[[0,0.5],[1,0.5]];portConstraint=eastwest;whiteSpace=wrap;html=1;" vertex="1" parent="-uqub06eaImzmK1k1aiv-19">
          <mxGeometry y="52" width="140" height="26" as="geometry" />
        </mxCell>
        <mxCell id="-uqub06eaImzmK1k1aiv-23" value="Избранное" style="swimlane;fontStyle=0;childLayout=stackLayout;horizontal=1;startSize=26;fillColor=none;horizontalStack=0;resizeParent=1;resizeParentMax=0;resizeLast=0;collapsible=1;marginBottom=0;whiteSpace=wrap;html=1;" vertex="1" parent="1">
          <mxGeometry x="640" y="-690" width="140" height="104" as="geometry" />
        </mxCell>
        <mxCell id="-uqub06eaImzmK1k1aiv-24" value="Любимые товары" style="text;strokeColor=none;fillColor=none;align=left;verticalAlign=top;spacingLeft=4;spacingRight=4;overflow=hidden;rotatable=0;points=[[0,0.5],[1,0.5]];portConstraint=eastwest;whiteSpace=wrap;html=1;" vertex="1" parent="-uqub06eaImzmK1k1aiv-23">
          <mxGeometry y="26" width="140" height="26" as="geometry" />
        </mxCell>
        <mxCell id="-uqub06eaImzmK1k1aiv-25" value="объявления" style="text;align=left;verticalAlign=top;spacingLeft=4;spacingRight=4;overflow=hidden;rotatable=0;points=[[0,0.5],[1,0.5]];portConstraint=eastwest;whiteSpace=wrap;html=1;labelBackgroundColor=none;" vertex="1" parent="-uqub06eaImzmK1k1aiv-23">
          <mxGeometry y="52" width="140" height="26" as="geometry" />
        </mxCell>
        <mxCell id="-uqub06eaImzmK1k1aiv-26" value="+ field: type" style="text;strokeColor=none;fillColor=none;align=left;verticalAlign=top;spacingLeft=4;spacingRight=4;overflow=hidden;rotatable=0;points=[[0,0.5],[1,0.5]];portConstraint=eastwest;whiteSpace=wrap;html=1;" vertex="1" parent="-uqub06eaImzmK1k1aiv-23">
          <mxGeometry y="78" width="140" height="26" as="geometry" />
        </mxCell>
        <mxCell id="-uqub06eaImzmK1k1aiv-39" style="edgeStyle=orthogonalEdgeStyle;rounded=0;orthogonalLoop=1;jettySize=auto;html=1;exitX=1;exitY=0.25;exitDx=0;exitDy=0;entryX=1.021;entryY=-0.038;entryDx=0;entryDy=0;entryPerimeter=0;" edge="1" parent="-uqub06eaImzmK1k1aiv-23" source="-uqub06eaImzmK1k1aiv-23" target="-uqub06eaImzmK1k1aiv-24">
          <mxGeometry relative="1" as="geometry" />
        </mxCell>
        <mxCell id="-uqub06eaImzmK1k1aiv-41" style="edgeStyle=orthogonalEdgeStyle;rounded=0;orthogonalLoop=1;jettySize=auto;html=1;exitX=0.5;exitY=0;exitDx=0;exitDy=0;" edge="1" parent="1" source="-uqub06eaImzmK1k1aiv-27">
          <mxGeometry relative="1" as="geometry">
            <mxPoint x="710" y="-580" as="targetPoint" />
          </mxGeometry>
        </mxCell>
        <mxCell id="-uqub06eaImzmK1k1aiv-42" style="edgeStyle=orthogonalEdgeStyle;rounded=0;orthogonalLoop=1;jettySize=auto;html=1;exitX=1;exitY=0.25;exitDx=0;exitDy=0;entryX=1;entryY=0.5;entryDx=0;entryDy=0;" edge="1" parent="1" source="-uqub06eaImzmK1k1aiv-27" target="-uqub06eaImzmK1k1aiv-21">
          <mxGeometry relative="1" as="geometry" />
        </mxCell>
        <mxCell id="-uqub06eaImzmK1k1aiv-27" value="Заказы" style="swimlane;fontStyle=0;childLayout=stackLayout;horizontal=1;startSize=26;fillColor=none;horizontalStack=0;resizeParent=1;resizeParentMax=0;resizeLast=0;collapsible=1;marginBottom=0;whiteSpace=wrap;html=1;" vertex="1" parent="1">
          <mxGeometry x="640" y="-510" width="140" height="78" as="geometry" />
        </mxCell>
        <mxCell id="-uqub06eaImzmK1k1aiv-28" value="купленные товары" style="text;strokeColor=none;fillColor=none;align=left;verticalAlign=top;spacingLeft=4;spacingRight=4;overflow=hidden;rotatable=0;points=[[0,0.5],[1,0.5]];portConstraint=eastwest;whiteSpace=wrap;html=1;" vertex="1" parent="-uqub06eaImzmK1k1aiv-27">
          <mxGeometry y="26" width="140" height="26" as="geometry" />
        </mxCell>
        <mxCell id="-uqub06eaImzmK1k1aiv-29" value="возврат" style="text;strokeColor=none;fillColor=none;align=left;verticalAlign=top;spacingLeft=4;spacingRight=4;overflow=hidden;rotatable=0;points=[[0,0.5],[1,0.5]];portConstraint=eastwest;whiteSpace=wrap;html=1;" vertex="1" parent="-uqub06eaImzmK1k1aiv-27">
          <mxGeometry y="52" width="140" height="26" as="geometry" />
        </mxCell>
        <mxCell id="-uqub06eaImzmK1k1aiv-45" style="edgeStyle=orthogonalEdgeStyle;rounded=0;orthogonalLoop=1;jettySize=auto;html=1;exitX=0.5;exitY=1;exitDx=0;exitDy=0;entryX=-0.029;entryY=0.269;entryDx=0;entryDy=0;entryPerimeter=0;" edge="1" parent="1" source="-uqub06eaImzmK1k1aiv-2" target="-uqub06eaImzmK1k1aiv-22">
          <mxGeometry relative="1" as="geometry" />
        </mxCell>
        <mxCell id="-uqub06eaImzmK1k1aiv-46" style="edgeStyle=orthogonalEdgeStyle;rounded=0;orthogonalLoop=1;jettySize=auto;html=1;exitX=0.75;exitY=1;exitDx=0;exitDy=0;entryX=-0.021;entryY=-0.077;entryDx=0;entryDy=0;entryPerimeter=0;" edge="1" parent="1" source="-uqub06eaImzmK1k1aiv-2" target="-uqub06eaImzmK1k1aiv-29">
          <mxGeometry relative="1" as="geometry" />
        </mxCell>
      </root>
    </mxGraphModel>
  </diagram>
</mxfile>
